<svg xmlns="http://www.w3.org/2000/svg" height="1200" width="1600" version="1.1" xmlns:xlink="http://www.w3.org/1999/xlink" xmlns:svgjs="http://svgjs.com/svgjs"><rect fill="#f3ebe9" width="1600" height="1200"></rect><g><path d="M410.88 399.04C437.54 351.26 382.15 316.37 410.88 268.58" stroke="#ffffff" stroke-width="4" stroke-linecap="round" stroke-linejoin="round" opacity="1" fill="none"></path><path d="M382.41 399.04C409.07 351.26 353.67 316.37 382.41 268.58" stroke="#ffffff" stroke-width="4" stroke-linecap="round" stroke-linejoin="round" opacity="1" fill="none"></path><path d="M439.35 399.04C466.01 351.26 410.62 316.37 439.35 268.58" stroke="#ffffff" stroke-width="4" stroke-linecap="round" stroke-linejoin="round" opacity="1" fill="none"></path></g><g><path d="M1154.65 659.23L539.56 659.44 539.37 1018.04 1154.84 1018.04 1154.65 659.23Z" fill="#efdcd7" opacity="1" stroke-width="4" stroke="none"></path><path d="M1154.84 662.59L539.37 662.59V785.22L1154.84 680.82V662.59Z" fill="#e28268" opacity="0.3" stroke-width="4" stroke="none"></path><path d="M539.37 608.61L1210.86 608.61V662.59L539.37 662.59V608.61Z" fill="#ffffff" opacity="1" stroke-width="4" stroke="none"></path><path d="M1154.74 662.49H539.28" stroke="#a8a8a8" stroke-width="4" stroke-linecap="round" stroke-linejoin="round" opacity="1" fill="none"></path></g><g><path d="M315.12 1017.83V644.35C315.12 624.88 333.38 608.99 355.76 608.99H628.03C650.41 608.99 668.66 624.88 668.66 644.35V1017.83H315.12Z" fill="#efdcd7" opacity="1" stroke-width="4" stroke="none"></path><path d="M347.72 989.47V653.15C347.72 644.45 355.87 637.36 365.86 637.36H618.03C628.03 637.36 636.18 644.45 636.18 653.15V989.47H347.72Z" fill="#ffffff" opacity="1" stroke-width="4" stroke="none"></path><path d="M635.85 754.98H347.93" stroke="#656363" stroke-width="4" stroke-linecap="round" stroke-linejoin="round" opacity="1" fill="none"></path><path d="M635.85 872.32H347.93" stroke="#656363" stroke-width="4" stroke-linecap="round" stroke-linejoin="round" opacity="1" fill="none"></path><path d="M492.98 718.1C500.6 718.1 506.78 712.72 506.78 706.1 506.78 699.47 500.6 694.09 492.98 694.09 485.36 694.09 479.18 699.47 479.18 706.1 479.18 712.72 485.36 718.1 492.98 718.1Z" fill="#656363" opacity="0.2" stroke-width="4" stroke="none"></path><path d="M492.98 835.35C500.6 835.35 506.78 829.97 506.78 823.34 506.78 816.71 500.6 811.33 492.98 811.33 485.36 811.33 479.18 816.71 479.18 823.34 479.18 829.97 485.36 835.35 492.98 835.35Z" fill="#656363" opacity="0.2" stroke-width="4" stroke="none"></path><path d="M492.98 952.59C500.6 952.59 506.78 947.21 506.78 940.58 506.78 933.95 500.6 928.57 492.98 928.57 485.36 928.57 479.18 933.95 479.18 940.58 479.18 947.21 485.36 952.59 492.98 952.59Z" fill="#656363" opacity="0.2" stroke-width="4" stroke="none"></path><path d="M492.98 708.36C500.6 708.36 506.78 702.98 506.78 696.36 506.78 689.72 500.6 684.35 492.98 684.35 485.36 684.35 479.18 689.72 479.18 696.36 479.18 702.98 485.36 708.36 492.98 708.36Z" fill="#efdcd7" opacity="1" stroke-width="4" stroke="none"></path><path d="M492.98 825.61C500.6 825.61 506.78 820.23 506.78 813.6 506.78 806.96 500.6 801.59 492.98 801.59 485.36 801.59 479.18 806.96 479.18 813.6 479.18 820.23 485.36 825.61 492.98 825.61Z" fill="#efdcd7" opacity="1" stroke-width="4" stroke="none"></path><path d="M492.98 942.85C500.6 942.85 506.78 937.47 506.78 930.84 506.78 924.21 500.6 918.84 492.98 918.84 485.36 918.84 479.18 924.21 479.18 930.84 479.18 937.47 485.36 942.85 492.98 942.85Z" fill="#efdcd7" opacity="1" stroke-width="4" stroke="none"></path></g><g><path d="M1363.69 841.29H1191.03 1190.98L1214.86 1017.86H1340.27L1363.97 841.87 1363.69 841.29Z" fill="#ffc930" opacity="1" stroke-width="4" stroke="none"></path><path d="M1257.29 841.29H1191.03C1191.03 841.29 1220.27 888.75 1277.53 888.75 1277.76 888.75 1278.4 888.75 1278.63 888.75 1266.92 876.64 1259.48 850.4 1257.29 841.29Z" fill="#000000" opacity="0.2" stroke-width="4" stroke="none"></path><path d="M1278.34 888.75C1222.64 888.75 1193.4 844.23 1191.84 841.81H1191.79L1197.32 882.69C1197.73 883.04 1198.18 883.39 1198.59 883.73 1221.83 902.59 1249.45 912.56 1278.4 912.56 1307.34 912.56 1334.62 902.88 1357.86 884.02 1358.27 883.67 1358.15 883.79 1358.55 883.44L1364.26 841.41C1364.26 841.35 1364.2 841.35 1364.2 841.41 1362.64 843.89 1333.99 888.75 1278.34 888.75Z" fill="#61ccff" opacity="1" stroke-width="4" stroke="none"></path><path d="M1358.49 883.44C1358.09 883.79 1357.91 883.9 1357.51 884.25 1346.67 893.07 1335.77 899.36 1323.32 904.2L1317.89 1017.86H1340.38L1358.49 883.44Z" fill="#000000" opacity="0.2" stroke-width="4" stroke="none"></path><path d="M1363.85 841.75C1361.67 845.15 1348.12 864.87 1324.13 877.5 1324.06 877.5 1324.06 877.56 1324.06 877.62L1323.26 904.09C1323.26 904.14 1323.32 904.26 1323.44 904.2 1335.83 899.36 1345.57 893.94 1356.42 885.17 1356.82 884.83 1357.98 883.9 1358.38 883.56L1358.44 883.5 1364.08 841.92C1364.08 841.69 1363.97 841.64 1363.85 841.75Z" fill="#0190d4" opacity="0.2" stroke-width="4" stroke="none"></path><path d="M1364.14 841.29C1364.14 841.29 1335.48 888.34 1278.22 888.34 1220.96 888.34 1191.09 841.98 1191.09 841.98" stroke="#181818" stroke-width="4" stroke-linecap="round" stroke-linejoin="round" opacity="1" fill="none"></path><path d="M1246.92 938.11V987.18" stroke="#000000" stroke-width="4" stroke-linecap="round" stroke-linejoin="round" opacity="1" fill="none"></path><path d="M1277.59 938.11V987.18" stroke="#000000" stroke-width="4" stroke-linecap="round" stroke-linejoin="round" opacity="1" fill="none"></path><path d="M1308.27 938.11V987.18" stroke="#000000" stroke-width="4" stroke-linecap="round" stroke-linejoin="round" opacity="1" fill="none"></path><path d="M1203.32 842.04C1157.65 874.1 1118.61 869.66 1116.65 869.37 1116.65 869.37 1116.6 869.37 1116.65 869.43L1144.74 899.76 1146.35 899.88C1176.22 901.95 1204.53 894.23 1228.23 877.62 1251.93 861.01 1268.77 836.97 1276.96 808.13 1277.13 807.61 1277.25 807.1 1277.36 806.58L1260.93 769.33C1260.87 769.21 1260.7 769.21 1260.64 769.33 1259.37 773.54 1247.44 811.02 1203.32 842.04Z" fill="#ffc930" opacity="1" stroke-width="4" stroke="none"></path><path d="M1260.87 769.44C1260.7 771.11 1258.62 788.18 1251.64 808.19 1251.64 808.19 1251.64 808.19 1251.64 808.25L1265.6 835.29H1265.66C1270.27 826.82 1273.96 817.76 1276.67 808.13 1276.84 807.61 1277.02 806.75 1277.13 806.23L1260.93 769.5C1260.93 769.38 1260.87 769.38 1260.87 769.44Z" fill="#000000" opacity="0.2" stroke-width="4" stroke="none"></path><path d="M1214.34 858.07C1258.97 826.7 1261.04 774.05 1260.87 769.33 1260.87 769.15 1260.7 769.09 1260.58 769.15L1116.65 869.31C1116.59 869.37 1116.59 869.43 1116.65 869.49 1119.82 870.76 1168.95 889.96 1214.34 858.07Z" fill="#61ccff" opacity="1" stroke-width="4" stroke="none"></path><path d="M1177.89 840.02L1171.03 830.28C1164.86 821.51 1166.99 809.4 1175.75 803.23 1184.52 797.06 1196.63 799.2 1202.8 807.96L1209.67 817.76" stroke="#181818" stroke-width="4" stroke-linecap="round" stroke-linejoin="round" opacity="1" fill="none"></path><path d="M1144.5 899.7C1170.51 902.01 1202.4 895.67 1227.14 878.2 1250.78 861.47 1268.94 836.45 1277.13 806.52" stroke="#000000" stroke-width="4" stroke-linecap="round" stroke-linejoin="round" opacity="1" fill="none"></path></g><g><path d="M836.48 608.29L836.5 606.4C836.52 597.77 843.08 591.23 851.8 591.23H931.22L931.27 608.39H836.5L836.48 608.29Z" fill="#61ccff" opacity="1" stroke-width="4" stroke="none"></path><path d="M866.81 608.29L866.73 518.26H961.5L961.55 585.17C961.51 598.34 951.54 608.29 938.17 608.29H866.81Z" fill="#61ccff" opacity="1" stroke-width="4" stroke="none"></path><path d="M866.75 564.13L866.73 518.26H961.5L961.52 576.92 866.75 564.13Z" fill="#051117" opacity="0.25" stroke-width="4" stroke="none"></path><path d="M791.23 556.17C776.82 556.17 763.24 550.58 753 540.44 742.63 530.11 736.92 516.46 736.84 501.77L736.79 350.79C736.74 320.84 761.16 296.39 791.11 296.39H1036.86C1051.26 296.39 1064.84 301.98 1075.09 312.13 1085.45 322.46 1091.17 336.1 1091.25 350.79L1091.29 501.77C1091.34 531.72 1066.92 556.17 1036.98 556.17H791.23V556.17Z" fill="#61ccff" opacity="1" stroke-width="4" stroke="none"></path><path d="M760.57 487.93L760.48 358.85C760.51 337.53 777.87 320.18 799.2 320.18H1028.93C1039.17 320.18 1048.82 324.16 1056.19 331.36 1063.57 338.66 1067.69 348.42 1067.64 358.85L1067.64 487.93H760.57Z" fill="#ffffff" opacity="1" stroke-width="4" stroke="none"></path><path d="M914.15 535.32C910.74 535.32 907.53 534.09 905.11 531.72 899.76 526.69 899.42 518.26 904.46 512.95 906.93 510.3 910.49 508.69 914.19 508.69 917.6 508.69 920.8 509.92 923.22 512.29 928.58 517.31 928.91 525.75 923.88 531.05 921.33 533.8 917.84 535.32 914.15 535.32Z" fill="#3ca4d6" opacity="1" stroke-width="4" stroke="none"></path><path d="M866.55 558.06H961.33" stroke="#0f171a" stroke-width="4" stroke-linecap="round" stroke-linejoin="round" opacity="1" fill="none"></path></g><g><path d="M927.87 344.63C931.25 344.63 933.95 347.33 933.95 350.71V373.12C933.95 376.49 931.25 379.19 927.87 379.19 924.5 379.19 921.8 376.49 921.8 373.12V350.71C921.8 347.33 924.55 344.63 927.87 344.63Z" fill="#fe4f32" opacity="1" stroke-width="4" stroke="none"></path><path d="M931.29 376.06C928.21 375.67 925.94 372.93 925.94 369.84V347.62C925.94 346.71 926.14 345.79 926.52 345.07 926.57 344.97 926.47 344.83 926.38 344.87 923.77 345.55 921.8 347.91 921.8 350.8V373.07C921.8 376.4 924.45 379.24 927.78 379.29 930.19 379.34 932.21 378.04 933.22 376.06 932.64 376.06 932.07 376.11 931.29 376.06Z" fill="#e92302" opacity="0.2" stroke-width="4" stroke="none"></path><path d="M858.75 367.05C861.11 364.68 864.97 364.68 867.33 367.05L881.55 381.27C883.91 383.63 883.91 387.48 881.55 389.84 879.19 392.21 875.33 392.21 872.97 389.84L858.75 375.63C856.39 373.26 856.39 369.41 858.75 367.05Z" fill="#fe4f32" opacity="1" stroke-width="4" stroke="none"></path><path d="M882.71 383.63C880.35 385.99 876.49 385.99 874.13 383.63L859.91 369.41C859.33 368.83 858.94 368.2 858.66 367.48 858.61 367.38 858.51 367.38 858.41 367.43 856.39 369.79 856.53 373.41 858.75 375.63L872.83 389.7C875.04 391.92 878.66 392.21 881.12 390.23 883.19 388.5 883.82 385.7 882.9 383.39 882.85 383.43 882.8 383.53 882.71 383.63Z" fill="#e92302" opacity="0.2" stroke-width="4" stroke="none"></path><path d="M909.65 369.75C869.36 369.75 836.15 406.23 831.76 453.18 831.28 458.48 835.13 463.16 840.44 463.64 840.73 463.69 841.01 463.69 841.3 463.69H849.16C855.09 463.69 860.05 459.16 860.58 453.28 860.97 449.23 861.55 445.23 862.37 441.27 864.97 428.36 870.03 416.02 877.31 405.03V404.98C877.65 404.5 877.94 404.02 878.27 403.58L878.42 403.39C878.71 402.96 879 402.57 879.29 402.14 879.33 402.04 879.43 401.94 879.48 401.85L880.3 400.74 880.59 400.35C880.83 400.02 881.12 399.68 881.36 399.34L881.7 398.91C881.94 398.62 882.18 398.28 882.42 397.99L882.8 397.51 883.53 396.69 883.96 396.16 884.64 395.39 885.12 394.81C885.31 394.57 885.55 394.33 885.74 394.13L886.27 393.56 886.9 392.93 887.48 392.3C887.67 392.11 887.87 391.92 888.06 391.72L888.73 391.1 889.26 390.57 889.99 389.89 890.47 389.41 891.24 388.69 891.67 388.3C891.96 388.06 892.2 387.82 892.49 387.58L892.88 387.24C893.17 387 893.5 386.71 893.79 386.47L894.08 386.23C894.42 385.94 894.76 385.65 895.1 385.41L895.29 385.27 896.45 384.35C904.59 378.08 913.99 373.65 923.97 371.34 919.29 370.28 914.52 369.75 909.65 369.75Z" fill="#e92302" opacity="1" stroke-width="4" stroke="none"></path><path d="M834.22 396.01C835.91 393.12 839.62 392.11 842.51 393.8L866.32 407.53C869.21 409.22 870.22 412.93 868.54 415.82 866.85 418.72 863.14 419.73 860.25 418.04L836.44 404.3C833.54 402.62 832.58 398.91 834.22 396.01Z" fill="#fe4f32" opacity="1" stroke-width="4" stroke="none"></path><path d="M868.54 410.76C866.85 413.66 863.14 414.67 860.25 412.98L836.44 399.24C835.42 398.62 834.6 397.75 834.12 396.79 834.07 396.69 833.93 396.69 833.88 396.79 832.77 399.53 833.78 402.76 836.44 404.3L860.25 418.04C863.14 419.73 866.85 418.72 868.54 415.82 869.55 414.04 869.6 411.97 868.78 410.28 868.73 410.43 868.63 410.57 868.54 410.76Z" fill="#e92302" opacity="0.2" stroke-width="4" stroke="none"></path><path d="M863.67 461.09C856.2 463.88 849.16 460.17 847.76 452.7 840.29 453.18 835.13 441.47 844 436.36 844 436.36 841.64 427.01 851.47 426.09 851.47 426.09 846.36 410.33 863.14 402.71 877.65 396.16 895.87 405.99 895.87 405.99L863.67 461.09Z" fill="#030303" opacity="0.2" stroke-width="4" stroke="none"></path><path d="M841.69 442.34H841.64C837.4 441.42 825.78 437.61 825.78 422.72 825.78 408.45 842.03 404.4 843.47 404.06 843.52 404.06 843.57 404.02 843.57 403.92 843.62 402.91 844.29 394.76 855.09 394.66 855.19 394.66 855.23 394.62 855.23 394.52 855.09 393.03 854.32 380.59 869.12 378.76 869.21 378.76 869.26 378.66 869.21 378.61 868.87 377.07 866.22 363.24 879.53 357.26 893.07 351.14 902.95 361.02 904.16 362.27 904.21 362.32 904.3 362.32 904.35 362.23 904.98 361.12 909.22 354.42 917.32 354.42 923.49 354.42 927.87 359.53 928.79 360.73 928.88 360.83 929.03 360.78 929.03 360.68 929.37 358.9 931.44 350.03 940.65 348.34 946.48 347.19 952.5 349.5 956.02 354.32 956.07 354.37 956.12 354.37 956.17 354.37 957.18 353.98 966.48 350.85 970.05 360.88 970.05 360.92 970.14 360.97 970.19 360.97 971.35 360.83 981.81 359.62 986 367.53 989.81 374.71 985.95 381.94 985.23 383.24 985.18 383.34 985.23 383.43 985.33 383.43 986.63 383.43 992.75 383.72 996.32 388.59 1001.28 395.29 995.4 403.39 994.97 403.97 994.97 404.02 994.92 404.02 994.87 404.02L841.69 442.34Z" fill="#ffc930" opacity="1" stroke-width="4" stroke="none"></path><path d="M853.14 429.59C855.31 426.46 853.46 421.42 849.01 418.31 844.55 415.21 839.17 415.23 836.99 418.36 834.82 421.48 836.67 426.53 841.13 429.63 845.58 432.73 850.96 432.71 853.14 429.59Z" fill="#a6862b" opacity="0.2" stroke-width="4" stroke="none"></path><path d="M862.56 456.7C855.14 459.45 848.15 455.78 846.7 448.41 846.7 448.36 846.65 448.31 846.56 448.31 839.18 448.65 834.12 437.13 842.85 432.02 842.89 431.97 842.94 431.92 842.89 431.88 842.7 430.91 841.16 422.67 850.22 421.71 850.32 421.71 850.37 421.61 850.32 421.51 849.84 419.87 846.22 405.46 862.03 398.28 875.82 392.06 893.02 400.64 894.61 401.51 894.66 401.56 894.71 401.65 894.66 401.7L862.56 456.7C862.61 456.7 862.61 456.7 862.56 456.7Z" fill="#ffc930" opacity="1" stroke-width="4" stroke="none"></path><path d="M866.52 444.81C871.84 443.7 875.52 439.78 874.75 436.05 873.97 432.33 869.03 430.21 863.71 431.31 858.4 432.42 854.71 436.34 855.49 440.07 856.27 443.8 861.21 445.92 866.52 444.81Z" fill="#625122" opacity="0.2" stroke-width="4" stroke="none"></path><path d="M865.12 440.23C870.44 439.13 874.12 435.2 873.35 431.48 872.57 427.75 867.63 425.63 862.31 426.73 857 427.84 853.32 431.76 854.1 435.49 854.87 439.22 859.81 441.34 865.12 440.23Z" fill="#ffffff" opacity="1" stroke-width="4" stroke="none"></path><path d="M949.37 383.24C955.41 383.24 960.31 378.34 960.31 372.3 960.31 366.26 955.41 361.36 949.37 361.36 943.33 361.36 938.43 366.26 938.43 372.3 938.43 378.34 943.33 383.24 949.37 383.24Z" fill="#ffffff" opacity="1" stroke-width="4" stroke="none"></path><path d="M949.37 377.7C952.35 377.7 954.77 375.28 954.77 372.3 954.77 369.32 952.35 366.9 949.37 366.9 946.39 366.9 943.97 369.32 943.97 372.3 943.97 375.28 946.39 377.7 949.37 377.7Z" fill="#ffffff" opacity="1" stroke-width="4" stroke="none"></path><path d="M938.69 380.76C942.46 380.19 944.85 375.37 944.03 370.01 943.22 364.64 939.51 360.75 935.75 361.31 931.98 361.89 929.59 366.7 930.41 372.07 931.22 377.44 934.93 381.33 938.69 380.76Z" fill="#a6862b" opacity="0.2" stroke-width="4" stroke="none"></path><path d="M942.4 378.11C946.17 377.54 948.56 372.72 947.75 367.35 946.93 361.98 943.22 358.09 939.46 358.66 935.69 359.24 933.3 364.05 934.11 369.42 934.93 374.79 938.64 378.68 942.4 378.11Z" fill="#ffffff" opacity="1" stroke-width="4" stroke="none"></path><path d="M869.21 378.81C870.08 382.37 871.91 385.99 871.91 385.99" stroke="#343027" stroke-width="4" stroke-linecap="round" stroke-linejoin="round" opacity="1" fill="none"></path><path d="M985.09 383.53C979.3 384.01 974.72 388.54 974.72 388.54" stroke="#343027" stroke-width="4" stroke-linecap="round" stroke-linejoin="round" opacity="1" fill="none"></path><path d="M904.25 362.47C903.43 364.06 903.24 367.34 903.24 367.34" stroke="#343027" stroke-width="4" stroke-linecap="round" stroke-linejoin="round" opacity="1" fill="none"></path><path d="M903.39 405.46C914.35 405.46 923.24 396.57 923.24 385.6 923.24 374.64 914.35 365.74 903.39 365.74 892.42 365.74 883.53 374.64 883.53 385.6 883.53 396.57 892.42 405.46 903.39 405.46Z" fill="#a6862b" opacity="0.2" stroke-width="4" stroke="none"></path><path d="M908.64 403.39C919.61 403.39 928.5 394.5 928.5 383.53 928.5 372.56 919.61 363.67 908.64 363.67 897.67 363.67 888.78 372.56 888.78 383.53 888.78 394.5 897.67 403.39 908.64 403.39Z" fill="#ffffff" opacity="1" stroke-width="4" stroke="none"></path><path d="M908.64 396.54C915.83 396.54 921.65 390.72 921.65 383.53 921.65 376.34 915.83 370.52 908.64 370.52 901.45 370.52 895.63 376.34 895.63 383.53 895.63 390.72 901.45 396.54 908.64 396.54Z" fill="#ffffff" opacity="1" stroke-width="4" stroke="none"></path><path d="M889.26 371.62C876.35 371.62 865.89 382.08 865.89 395 865.89 407.92 876.35 418.38 889.26 418.38 902.18 418.38 912.64 407.92 912.64 395 912.59 382.08 902.13 371.62 889.26 371.62ZM889.26 411.82C879.96 411.82 872.44 404.3 872.44 395 872.44 385.7 879.96 378.18 889.26 378.18 898.57 378.18 906.09 385.7 906.09 395 906.09 404.3 898.52 411.82 889.26 411.82Z" fill="#ffffff" opacity="1" stroke-width="4" stroke="none"></path><path d="M1015.84 453.23C1011.5 406.28 978.29 369.79 937.99 369.79 933.13 369.79 928.31 370.32 923.58 371.38 913.56 373.7 904.16 378.13 896.06 384.4L894.9 385.27 894.71 385.41C894.37 385.7 894.04 385.94 893.7 386.23L893.41 386.47C893.12 386.71 892.78 387 892.49 387.24L892.11 387.58C891.82 387.82 891.53 388.06 891.29 388.3L890.85 388.69 890.08 389.41 889.6 389.89 888.88 390.57 888.35 391.1 887.67 391.72C887.48 391.92 887.29 392.11 887.09 392.3L886.52 392.93 885.89 393.56 885.36 394.13C885.17 394.38 884.93 394.62 884.73 394.81L884.25 395.39 883.58 396.16 883.14 396.69 882.42 397.51 882.03 397.99C881.79 398.28 881.55 398.62 881.31 398.91L880.97 399.34C880.73 399.68 880.44 400.02 880.2 400.35L879.91 400.74 879.09 401.85C879.04 401.94 878.95 402.04 878.9 402.14 878.61 402.52 878.32 402.96 878.03 403.39L877.89 403.58C877.55 404.06 877.26 404.5 876.92 404.98V405.03C869.65 416.02 864.58 428.36 861.98 441.27 861.16 445.23 860.58 449.28 860.2 453.28 859.67 459.16 854.7 463.69 848.77 463.69H1006.39C1011.69 463.64 1015.98 459.3 1015.93 454 1015.89 453.76 1015.89 453.52 1015.84 453.23Z" fill="#fe4f32" opacity="1" stroke-width="4" stroke="none"></path><path d="M946.48 399.2C949.19 399.2 951.39 396.99 951.39 394.28 951.39 391.57 949.19 389.36 946.48 389.36 943.76 389.36 941.56 391.57 941.56 394.28 941.56 396.99 943.76 399.2 946.48 399.2Z" fill="#e92302" opacity="1" stroke-width="4" stroke="none"></path><path d="M967.97 434.24C970.69 434.24 972.89 432.03 972.89 429.32 972.89 426.61 970.69 424.4 967.97 424.4 965.26 424.4 963.06 426.61 963.06 429.32 963.06 432.03 965.26 434.24 967.97 434.24Z" fill="#e92302" opacity="1" stroke-width="4" stroke="none"></path><path d="M911.44 418.86C914.15 418.86 916.35 416.66 916.35 413.95 916.35 411.23 914.15 409.03 911.44 409.03 908.72 409.03 906.52 411.23 906.52 413.95 906.52 416.66 908.72 418.86 911.44 418.86Z" fill="#e92302" opacity="1" stroke-width="4" stroke="none"></path><path d="M910.62 447.11C912.48 447.11 913.99 445.6 913.99 443.73 913.99 441.87 912.48 440.36 910.62 440.36 908.75 440.36 907.24 441.87 907.24 443.73 907.24 445.6 908.75 447.11 910.62 447.11Z" fill="#e92302" opacity="1" stroke-width="4" stroke="none"></path><path d="M891 438.19C892.86 438.19 894.37 436.68 894.37 434.82 894.37 432.95 892.86 431.44 891 431.44 889.13 431.44 887.62 432.95 887.62 434.82 887.62 436.68 889.13 438.19 891 438.19Z" fill="#e92302" opacity="1" stroke-width="4" stroke="none"></path><path d="M980.27 450.38C982.13 450.38 983.64 448.88 983.64 447.01 983.64 445.15 982.13 443.64 980.27 443.64 978.4 443.64 976.89 445.15 976.89 447.01 976.89 448.88 978.4 450.38 980.27 450.38Z" fill="#e92302" opacity="1" stroke-width="4" stroke="none"></path><path d="M980.27 422.77C982.13 422.77 983.64 421.26 983.64 419.39 983.64 417.53 982.13 416.02 980.27 416.02 978.4 416.02 976.89 417.53 976.89 419.39 976.89 421.26 978.4 422.77 980.27 422.77Z" fill="#e92302" opacity="1" stroke-width="4" stroke="none"></path><path d="M928.98 360.92C928.69 363.14 928.59 363.91 928.59 366.18" stroke="#343027" stroke-width="4" stroke-linecap="round" stroke-linejoin="round" opacity="1" fill="none"></path><path d="M956.07 354.51C956.7 355.57 957.18 356.92 957.52 358.13" stroke="#343027" stroke-width="4" stroke-linecap="round" stroke-linejoin="round" opacity="1" fill="none"></path><path d="M970.1 361.07C971.01 363.72 971.59 366.85 971.59 369.65" stroke="#343027" stroke-width="4" stroke-linecap="round" stroke-linejoin="round" opacity="1" fill="none"></path><path d="M855.19 394.71C856.82 394.71 858.7 394.66 860.29 395" stroke="#343027" stroke-width="4" stroke-linecap="round" stroke-linejoin="round" opacity="1" fill="none"></path><path d="M843.52 404.06C843.52 405.37 843.62 406.81 843.91 408.06" stroke="#343027" stroke-width="4" stroke-linecap="round" stroke-linejoin="round" opacity="1" fill="none"></path></g><g><path d="M1091.06 502.58C1082.02 494.72 1077.3 491.18 1077.3 474.28V436.56H1049.79V474.28C1049.79 491.18 1045.08 494.72 1036.04 502.58 1027 510.44 1025.82 518.29 1025.82 529.3V608.68H1101.27V529.3C1101.27 518.29 1100.09 510.44 1091.06 502.58Z" fill="#fe4f32" opacity="1" stroke-width="4" stroke="none"></path><path d="M1091.06 502.58C1082.02 494.72 1077.3 491.18 1077.3 474.28V436.56H1064.73V474.28C1064.73 491.18 1069.44 494.72 1078.48 502.58 1087.52 510.44 1088.7 518.29 1088.7 529.3V608.68H1101.27V529.3C1101.27 518.29 1100.09 510.44 1091.06 502.58Z" fill="#a74333" opacity="0.2" stroke-width="4" stroke="none"></path><path d="M1077.32 416.12H1049.81V431.06H1077.32V416.12Z" fill="#fe4f32" opacity="1" stroke-width="4" stroke="none"></path><path d="M1049.79 474.68H1077.3C1077.3 474.56 1077.3 474.4 1077.3 474.28V436.56H1049.79V474.28C1049.79 474.4 1049.79 474.56 1049.79 474.68Z" fill="#ffc930" opacity="1" stroke-width="4" stroke="none"></path><path d="M1064.69 474.68H1077.3C1077.3 474.56 1077.3 474.4 1077.3 474.28V436.56H1064.69V474.28C1064.69 474.4 1064.69 474.56 1064.69 474.68Z" fill="#a6862b" opacity="0.2" stroke-width="4" stroke="none"></path><path d="M1070.09 416.12H1057.04V431.06H1070.09V416.12Z" fill="#ffc930" opacity="1" stroke-width="4" stroke="none"></path><path d="M1025.82 547.61V559.16L1063.55 596.89 1101.27 559.16V547.61L1063.55 509.89 1025.82 547.61Z" fill="#ffc930" opacity="1" stroke-width="4" stroke="none"></path><path d="M1063.93 521.05L1031.59 553.39 1063.93 585.73 1096.28 553.39 1063.93 521.05Z" fill="#e9ad01" opacity="0.2" stroke-width="4" stroke="none"></path><path d="M1063.55 568.01C1071.62 568.01 1078.17 561.46 1078.17 553.39 1078.17 545.31 1071.62 538.77 1063.55 538.77 1055.47 538.77 1048.93 545.31 1048.93 553.39 1048.93 561.46 1055.47 568.01 1063.55 568.01Z" fill="#ffffff" opacity="1" stroke-width="4" stroke="none"></path><path d="M1049.71 431.06H1077.42C1079.15 431.06 1080.56 432.47 1080.56 434.2 1080.56 435.93 1079.15 437.34 1077.42 437.34H1049.71C1047.99 437.34 1046.57 435.93 1046.57 434.2 1046.57 432.47 1047.99 431.06 1049.71 431.06Z" fill="#030303" opacity="1" stroke-width="4" stroke="none"></path><path d="M1063.93 521.04L1031.59 553.39 1063.93 585.73 1096.27 553.39 1063.93 521.04Z" stroke="#030303" stroke-width="4" stroke-linecap="round" stroke-linejoin="round" opacity="1" fill="none"></path><path d="M1049.87 458.45L1075.26 433.06" stroke="#343027" stroke-width="4" stroke-linecap="round" stroke-linejoin="round" opacity="1" fill="none"></path><path d="M1077.3 452.83L1055.33 474.79" stroke="#343027" stroke-width="4" stroke-linecap="round" stroke-linejoin="round" opacity="1" fill="none"></path></g><g><path d="M366.53 608.73L375.6 589.74H442.49L451.57 608.73H366.53Z" fill="#231f20" opacity="1" stroke-width="4" stroke="none"></path><path d="M321.34 524.53C316.57 524.53 312.64 520.6 312.64 515.83 312.64 511.06 316.57 507.13 321.34 507.13H496.94C501.71 507.13 505.64 511.06 505.64 515.83 505.64 520.6 501.71 524.53 496.94 524.53H321.34Z" fill="#231f20" opacity="1" stroke-width="4" stroke="none"></path><path d="M368.96 589.74C352.31 589.74 338.65 576.08 338.65 559.43V471.77C338.93 472.14 480.38 472.14 480.57 471.77L480.66 559.43C480.66 576.17 467.01 589.74 450.26 589.74H368.96Z" fill="#fe4f32" stroke-linecap="round" stroke-linejoin="round" opacity="1" stroke-width="4" stroke="none"></path><path d="M338.65 471.77V559.43C338.65 576.08 352.31 589.74 368.96 589.74H410.78C394.03 589.74 380.47 576.08 380.47 559.43V471.95" fill="#994c3f" opacity="0.2" stroke-width="4" stroke="none"></path><path d="M409.66 507.32C361.1 507.32 338.84 472.14 338.65 471.77H480.57C480.38 472.23 458.12 507.32 409.66 507.32Z" fill="#61ccff" stroke-linecap="round" stroke-linejoin="round" opacity="1" stroke-width="4" stroke="none"></path><path d="M480.57 471.77C480.38 472.14 458.3 507.32 409.75 507.32 359.98 507.32 340.05 474.67 338.65 471.77" stroke="#282626" stroke-width="4" stroke-linecap="round" stroke-linejoin="round" opacity="1" fill="none"></path><path d="M411.25 472.7C404.04 472.7 398.15 466.81 398.15 459.6 398.15 452.4 404.04 446.51 411.25 446.51 418.45 446.51 424.34 452.4 424.34 459.6 424.34 466.9 418.45 472.7 411.25 472.7Z" fill="#231f20" opacity="1" stroke-width="4" stroke="none"></path></g><g><path d="M678.64 520.49L599.62 519.98C599.24 520.37 568.8 558.82 565.87 610.59 564.73 630.71 565.36 651.98 565.87 672.67 566.83 706.67 567.72 738.7 561.54 766.53 560.78 770.03 559.89 773.91 558.87 777.99 552.18 806.26 541.93 848.99 545.43 912.28 545.82 918.84 546.13 925.08 546.52 930.3H546.58 632.99V930.17C633.75 903.68 640.56 867.07 647.18 831.67 651.01 811.1 654.95 789.83 657.63 771.37 660.75 748.89 663.49 724.38 665.9 698.72L665.97 697.95C674.18 722.4 679.98 745.71 675.39 766.34 674.63 769.84 673.74 773.72 672.72 777.8 666.03 806.07 655.78 848.79 659.28 912.09 659.66 919.09 659.98 924.95 660.49 930.17H747.28C748.81 914.95 753.65 880.19 759.25 850.26 763.9 825.55 768.67 799.96 771.09 777.35 778.86 704.06 769.5 638.16 760.21 595.69 750.15 549.72 738.11 520.68 738.05 520.37L659.98 519.86" fill="#61ccff" opacity="1" stroke-width="4" stroke="none"></path><path d="M613.56 529.09C612.41 548.57 605.85 636.06 595.09 747.49 588.47 815.62 574.02 884.26 573.44 930.23" stroke="#0e0f10" stroke-width="4" stroke-linecap="round" stroke-linejoin="round" opacity="1" fill="none"></path><path d="M747.66 926.67C744.67 942.97 748.17 958.95 753.97 965.25 760.65 972.58 768.55 977.35 776.12 981.94 785.55 987.67 795.67 994.86 800.19 1004.6H670.94L670.74 1002.76C667.5 988.37 662.91 960.73 660.17 926.67H747.66Z" fill="#fe4f32" opacity="1" stroke-width="4" stroke="none"></path><path d="M803.19 1017.72C802.8 1011.99 801.59 1007.15 799.37 1002.88H670.55C672.78 1012.75 674.37 1017.72 674.37 1017.72H803.19Z" fill="#231f20" opacity="1" stroke-width="4" stroke="none"></path><path d="M665.97 697.95C674.12 722.34 679.91 745.58 675.33 766.21 674.56 769.71 673.67 773.6 672.65 777.67 665.97 805.94 655.72 848.67 659.22 911.96 662.47 969.52 670.49 1006.13 674.31 1017.53H738.3L738.24 1017.4C732 1008.3 724.87 1003.2 717.29 997.41 709.33 991.42 701.05 985.12 693.92 974.17 679.09 951.63 690.8 892.09 702.2 834.4 705.64 816.89 708.88 800.53 711.3 785.31 715.83 757.17 714.42 722.66 707.04 682.73 699.97 644.27 689.85 614.28 686.92 606.13 684.94 600.66 679.79 597.03 674.06 597.03" fill="#2c3336" opacity="0.25" stroke-width="4" stroke="none"></path><path d="M633.18 925.52C632.73 941.95 634.32 959.2 639.99 965.38 646.68 972.7 654.57 977.48 662.15 982.06 671.57 987.79 681.76 995.88 686.6 1005.56L557.6 1007.21 556.64 1002.88C553.39 988.24 548.87 958.89 546.13 924.63L633.18 925.52Z" fill="#fe4f32" opacity="1" stroke-width="4" stroke="none"></path><path d="M689.21 1017.72C688.83 1011.99 687.62 1007.15 685.39 1002.88H556.58C558.81 1012.69 560.4 1017.66 560.4 1017.72H689.21Z" fill="#231f20" opacity="1" stroke-width="4" stroke="none"></path><path d="M677.23 345.96L693.85 346.22 691.94 322.72C691.94 322.72 693.91 323.23 698.88 323.23 703.47 323.23 710.6 322.47 714.86 319.86 726.01 313.04 729.25 301.58 725.56 282.67 723.46 272.1 720.59 255.23 719.58 248.92L719.38 247.97C717.6 237.21 715.82 234.15 710.92 227.98 704.1 219.57 690.67 214.22 676.72 214.22 666.28 214.22 656.35 217.21 647.88 222.75 628.9 235.36 626.87 251.47 627.5 266.82 628.01 278.91 627.63 286.17 629.67 304.19 631.01 316.1 634.06 349.66 634.06 349.97V348.51L677.23 345.96Z" fill="#8a5f51" opacity="1" stroke-width="4" stroke="none"></path><path d="M650.36 304.57C650.36 304.57 628.84 286.36 640.68 273.18 649.09 263.82 669.4 276.94 669.4 276.94 669.4 276.94 678.95 268.79 677.23 257.46 677.23 257.46 698.31 260.7 699.2 240.96 710.22 249.5 715.12 243.07 715.12 243.07 713.34 233.83 713.72 227.28 709.71 222.31 702.89 213.9 688.82 208.36 674.88 208.36 664.43 208.36 654.5 211.36 646.03 216.9 627.06 229.5 625.02 245.61 625.66 260.96 626.17 273.06 627.44 285.85 629.48 303.87L629.54 304.38C629.92 307.19 630.24 311.2 630.69 315.4 630.62 315.46 643.29 312.85 650.36 304.57Z" fill="#222222" opacity="1" stroke-width="4" stroke="none"></path><path d="M691.63 322.66C690.16 322.47 682.33 321.19 672.72 317.31 672.34 317.18 672.08 317.63 672.4 317.88L692.2 333.16C692.46 333.36 692.78 333.16 692.71 332.85L691.88 322.91C691.88 322.85 691.76 322.72 691.63 322.66Z" fill="#222222" opacity="0.25" stroke-width="4" stroke="none"></path><path d="M514.86 529.85C526.26 529.85 539.58 525.46 553.27 517.12 564.09 510.5 574.41 501.9 582.68 492.6 584.08 491.01 586.69 491.78 587.08 493.81L593.06 526.48C593.25 527.69 594.34 528.58 595.55 528.58L737.35 528.58C739 528.58 740.21 527.05 739.83 525.46L730.98 485.85C730.66 484.45 731.55 483.12 732.89 482.8L845.4 452.68C845.06 451.29 843.01 447.2 842.19 445.38 819.74 405.94 778.16 369.27 748.81 353.41 729.45 342.91 708.63 341.38 697.93 341.38 697.17 341.38 696.6 341.38 696.09 341.38 694.81 341.38 693.73 340.36 693.6 339.09L692.9 332.02C692.78 330.74 691.69 329.73 690.36 329.73H634.77C633.24 329.73 632.09 331 632.22 332.53L632.92 340.49C633.05 341.95 631.9 343.22 630.44 343.22 630.44 343.22 630.44 343.22 630.37 343.22 626.49 343.22 618.34 343.48 608.03 345.45 552.76 355.77 497.74 434.79 497.23 435.62 487.17 450.2 474.37 480.12 480.03 502.79 482.71 513.23 488.89 521.07 498.56 526.03 503.4 528.64 508.88 529.85 514.86 529.85Z" fill="#ffc930" opacity="1" stroke-width="4" stroke="none"></path><path d="M691.95 322.72C687.55 321.58 680.61 318.97 673.42 316.99" stroke="#000000" stroke-width="4" stroke-linecap="round" stroke-linejoin="round" opacity="1" fill="none"></path><path d="M631.39 343.29L642.79 343.35" stroke="#000000" stroke-width="4" stroke-linecap="round" stroke-linejoin="round" opacity="1" fill="none"></path><path d="M659.28 289.93L651.96 284.71" stroke="#000000" stroke-width="4" stroke-linecap="round" stroke-linejoin="round" opacity="1" fill="none"></path><path d="M706.15 292.86C703.92 293.24 701.05 292.86 699.14 290.31" stroke="#000000" stroke-width="4" stroke-linecap="round" stroke-linejoin="round" opacity="1" fill="none"></path><path d="M692.26 274.39C690.71 274.39 689.46 273.14 689.46 271.59 689.46 270.04 690.71 268.79 692.26 268.79 693.81 268.79 695.06 270.04 695.06 271.59 695.06 273.14 693.81 274.39 692.26 274.39Z" fill="#222222" opacity="1" stroke-width="4" stroke="none"></path><path d="M715.18 270.64C713.63 270.64 712.38 269.38 712.38 267.84 712.38 266.29 713.63 265.03 715.18 265.03 716.73 265.03 717.98 266.29 717.98 267.84 717.98 269.38 716.73 270.64 715.18 270.64Z" fill="#222222" opacity="1" stroke-width="4" stroke="none"></path><path d="M707.16 274.14C707.8 276.11 708.37 278.47 708.11 279.23 707.41 280.82 705.44 281.46 705.44 281.46" stroke="#000000" stroke-width="4" stroke-linecap="round" stroke-linejoin="round" opacity="1" fill="none"></path><path d="M798.73 459.81L723.21 399.77 722.13 470.32 768.74 470 798.73 459.81Z" fill="#1f1e1a" opacity="0.25" stroke-width="4" stroke="none"></path><path d="M723.02 410.59L722.83 422.94" stroke="#000000" stroke-width="4" stroke-linecap="round" stroke-linejoin="round" opacity="1" fill="none"></path><path d="M720.28 252.55L710.29 185.63C714.93 182.96 717.29 177.67 716.27 172.13 714.93 164.56 708.44 160.86 702.77 159.84 701.24 159.59 699.78 159.46 698.25 159.46 686.15 159.46 678 167.87 677.94 167.93 677.88 167.87 668.58 157.81 656.48 157.81 655.14 157.81 653.74 157.87 652.41 158.19 636.81 161.18 638.78 175.7 638.78 175.76 638.72 175.7 629.87 172.52 621.14 172.52 611.72 172.52 606.12 176.15 604.52 183.4 602.87 191.24 610.51 197.16 615.28 200.02L625.73 266.82 720.28 252.55Z" fill="#ffffff" opacity="1" stroke-width="4" stroke="none"></path><path d="M701.82 515.72C709.39 515.72 716.97 514.51 724.36 512.22 743.08 506.1 758.55 492.73 767.78 474.46 778.1 454.14 779.82 429.44 772.37 406.83L623.16 455.44C629.29 473.12 639.93 488.34 654.44 499.35 668.39 509.92 685.26 515.72 701.82 515.72Z" fill="#fe4f32" opacity="1" stroke-width="4" stroke="none"></path><path d="M724.35 479.74C714.16 479.74 705.89 471.48 705.89 461.28 705.89 451.08 714.16 442.81 724.35 442.81 734.55 442.81 742.82 451.08 742.82 461.28 742.82 471.48 734.55 479.74 724.35 479.74Z" fill="#61ccff" opacity="1" stroke-width="4" stroke="none"></path><path d="M744.03 456.12C736.3 456.12 730.02 449.85 730.02 442.11 730.02 434.37 736.3 428.1 744.03 428.1 751.77 428.1 758.04 434.37 758.04 442.11 758.04 449.85 751.77 456.12 744.03 456.12Z" fill="#61ccff" opacity="1" stroke-width="4" stroke="none"></path><path d="M710.92 455.55C705.26 455.55 700.66 450.95 700.66 445.29 700.66 439.63 705.26 435.04 710.92 435.04 716.58 435.04 721.17 439.63 721.17 445.29 721.17 450.95 716.58 455.55 710.92 455.55Z" fill="#61ccff" opacity="1" stroke-width="4" stroke="none"></path><path d="M671.32 431.16L589.05 333.86C587.4 331.83 584.91 330.68 582.24 330.68 580.2 330.68 578.16 331.38 576.57 332.72L576.51 332.78C574.66 334.37 573.58 336.48 573.39 338.9 573.2 341.25 574.02 343.48 575.62 345.33L659.79 441.22 671.32 431.16Z" fill="#231f20" opacity="1" stroke-width="4" stroke="none"></path><path d="M684.31 489.36C685.01 489.36 685.64 489.1 686.15 488.66L714.17 464.52C715.25 463.63 715.51 462.04 714.68 460.89L694.75 430.9C691.63 426.32 686.54 423.58 681.06 423.58 677.81 423.58 674.63 424.54 671.89 426.38 671.25 426.83 670.74 427.15 670.3 427.59L656.29 439.69C649.41 445.61 648.59 455.99 654.63 463 655.08 463.5 655.53 463.95 656.04 464.4L682.71 488.59C682.84 489.1 683.54 489.36 684.31 489.36Z" fill="#231f20" opacity="1" stroke-width="4" stroke="none"></path><path d="M611.58 452.36C624.19 447.71 641.19 434.79 649.22 425.68L649.28 425.62C651.38 424.66 653.23 423.96 654.76 423.33 658.7 421.8 661.57 420.65 663.73 418.04 669.66 410.85 664.05 404.35 663.22 403.52 663.16 403.46 663.16 403.33 663.22 403.27 665.96 398.49 666.66 394.67 665.39 391.81 664.18 389.26 661.57 388.37 660.8 388.18 660.68 388.18 660.61 388.05 660.68 387.92 662.01 384.17 661.95 381.11 660.55 378.69 658.51 375.32 654.5 374.3 653.67 374.11 653.61 374.11 653.55 374.04 653.55 373.92 652.85 368.06 650.04 365.07 644.7 365.07 637.82 365.07 629.1 370.29 626.74 371.81 626.55 371.94 626.36 371.75 626.42 371.56 628.52 366.85 628.01 362.33 626.48 359.78 625.53 358.25 624.19 357.42 622.66 357.42 622.28 357.42 621.96 357.49 621.58 357.49H621.52C616.74 358.83 571.73 402.95 568.86 405.75 568.8 405.82 568.8 405.94 568.86 406.01L611.58 452.36Z" fill="#8a5f51" opacity="1" stroke-width="4" stroke="none"></path><path d="M663.86 482.29C656.12 482.29 649.85 476.02 649.85 468.28 649.85 460.54 656.12 454.27 663.86 454.27 671.6 454.27 677.87 460.54 677.87 468.28 677.87 476.02 671.6 482.29 663.86 482.29Z" fill="#61ccff" opacity="1" stroke-width="4" stroke="none"></path><path d="M702.89 519.66C710.6 519.66 718.05 518.46 725.43 516.04 745.3 509.48 761.28 495.02 770.39 475.09 779.49 455.16 780.51 432.3 773.51 410.59 773.25 411.29 770.13 421.67 761.15 433.9 752.62 445.55 736.89 461.15 710.47 469.81 699.52 473.44 688.38 475.22 677.55 475.22 647.69 475.22 625.59 459.81 624.64 459.17 630.5 477 641.19 492.22 655.71 503.17 669.46 513.87 686.34 519.66 702.89 519.66Z" fill="#ffffff" opacity="1" stroke-width="4" stroke="none"></path><path d="M701.12 549.72C717.54 549.72 736.58 546.79 755.3 541.31L736.71 480.89C736.52 480.89 723.53 480.51 709.65 480.51 694.37 480.51 676.47 480.76 674.69 483.31 672.14 488.15 695.36 501.1 693.03 501.07 692.78 501.07 690.1 501.33 686.03 501.33 678.51 501.33 664.12 500.44 651.51 494.26 651.51 494.26 648.97 495.41 647.82 498.21 646.93 500.69 647.31 503.68 649.03 507.12 649.03 507.12 646.8 509.35 646.93 512.79 646.99 515.59 648.52 518.46 651.45 521.26 651.45 521.32 649.67 530.43 659.98 533.55 659.98 533.55 659.79 535.77 661.83 538.38 663.68 540.87 667.94 544.37 677.11 546.92 683.73 548.76 691.95 549.72 701.12 549.72Z" fill="#8a5f51" opacity="1" stroke-width="4" stroke="none"></path><path d="M798.73 459.81L736.52 480.95 754.92 541.44C755.56 541.44 813.82 537.37 837.76 518.52 847.12 511.2 852.53 499.29 853.04 485.15 853.55 471.65 844.76 452.02 844.64 450.61" fill="#ffc930" opacity="1" stroke-width="4" stroke="none"></path><path d="M649.22 507.38C656.92 513.11 671.44 516.29 679.78 518.26" stroke="#000000" stroke-width="4" stroke-linecap="round" stroke-linejoin="round" opacity="1" fill="none"></path><path d="M651.76 521.38C658.13 524.57 668.38 527.75 681.69 530.3" stroke="#000000" stroke-width="4" stroke-linecap="round" stroke-linejoin="round" opacity="1" fill="none"></path><path d="M659.98 533.55C659.98 533.55 668.38 537.37 683.6 540.55" stroke="#000000" stroke-width="4" stroke-linecap="round" stroke-linejoin="round" opacity="1" fill="none"></path><path d="M626.43 371.81C620.51 375.19 614.77 378.88 609.24 382.83" stroke="#000000" stroke-width="4" stroke-linecap="round" stroke-linejoin="round" opacity="1" fill="none"></path><path d="M652.4 373.72C645.84 376.84 639.54 380.16 633.36 383.85" stroke="#000000" stroke-width="4" stroke-linecap="round" stroke-linejoin="round" opacity="1" fill="none"></path><path d="M660.68 387.67C653.99 390.66 647.37 394.1 640.87 397.79" stroke="#000000" stroke-width="4" stroke-linecap="round" stroke-linejoin="round" opacity="1" fill="none"></path><path d="M662.53 403.65C658.14 405.63 652.98 408.04 646.61 411.36" stroke="#000000" stroke-width="4" stroke-linecap="round" stroke-linejoin="round" opacity="1" fill="none"></path><path d="M802.29 458.6L770.08 469.55" stroke="#000000" stroke-width="4" stroke-linecap="round" stroke-linejoin="round" opacity="1" fill="none"></path><path d="M611.58 452.36C611.84 452.49 599.42 476.3 583.82 491.84" stroke="#000000" stroke-width="4" stroke-linecap="round" stroke-linejoin="round" opacity="1" fill="none"></path><path d="M568.87 405.75L520.6 446.89" stroke="#000000" stroke-width="4" stroke-linecap="round" stroke-linejoin="round" opacity="1" fill="none"></path><path d="M675.71 567.99C673.74 600.91 670.04 649.81 665.97 697.95" stroke="#0e0f10" stroke-width="4" stroke-linecap="round" stroke-linejoin="round" opacity="1" fill="none"></path><path d="M754.92 541.44C755.3 541.44 786.18 539.4 812.1 531L750.27 526.41 754.92 541.44Z" fill="#1f1e1a" opacity="0.25" stroke-width="4" stroke="none"></path><path d="M611.65 528.58L605.34 462.61C600.82 469.62 593.88 479.49 586.12 488.59L593.37 528.58H611.65V528.58Z" fill="#1f1e1a" opacity="0.25" stroke-width="4" stroke="none"></path><path d="M557.85 415.56C558.11 415.37 557.85 414.99 557.53 415.11L527.03 431.09C521.61 434.09 518.88 435.81 516.33 441.28L508.5 457.52 557.85 415.56Z" fill="#1f1e1a" opacity="0.25" stroke-width="4" stroke="none"></path><path d="M632.54 335.9L633.11 342.46C633.18 342.91 633.49 343.29 634 343.29L642.86 343.48C643.75 343.48 644.06 342.4 643.36 341.89L634 335.14C633.37 334.69 632.48 335.14 632.54 335.9Z" fill="#1f1e1a" opacity="0.25" stroke-width="4" stroke="none"></path><path d="M647.57 263.51L669.15 260.26 617.7 215.3 625.41 266.82 647.57 263.51Z" fill="#dddddd" opacity="0.25" stroke-width="4" stroke="none"></path><path d="M653.49 185.76C650.69 180.79 646.17 170.86 647.31 159.84 637.44 164.62 638.78 175.57 638.78 175.76 638.84 175.7 647.82 179.14 653.49 185.76Z" fill="#dddddd" opacity="0.25" stroke-width="4" stroke="none"></path><path d="M683.54 175.32C685.83 166.66 685.39 167.42 687.81 163.86L689.78 160.86C682.46 163.28 677.94 167.87 677.94 167.93 678 167.99 682.08 172.52 683.54 175.32Z" fill="#dddddd" opacity="0.25" stroke-width="4" stroke="none"></path><path d="M646.03 970.22L637.25 980.92" stroke="#130604" stroke-width="4" stroke-linecap="round" stroke-linejoin="round" opacity="1" fill="none"></path><path d="M639.23 963.09L627.13 970.22" stroke="#130604" stroke-width="4" stroke-linecap="round" stroke-linejoin="round" opacity="1" fill="none"></path><path d="M761.1 970.22L752.25 980.92" stroke="#130604" stroke-width="4" stroke-linecap="round" stroke-linejoin="round" opacity="1" fill="none"></path><path d="M754.28 963.09L742.18 970.22" stroke="#130604" stroke-width="4" stroke-linecap="round" stroke-linejoin="round" opacity="1" fill="none"></path><path d="M717.98 235.55L623.11 249.56" stroke="#010101" stroke-width="4" stroke-linecap="round" stroke-linejoin="round" opacity="1" fill="none"></path><path d="M638.77 175.76L640.94 183.98" stroke="#010101" stroke-width="4" stroke-linecap="round" stroke-linejoin="round" opacity="1" fill="none"></path><path d="M677.81 167.99C675.58 170.54 673.67 173.28 672.08 176.27" stroke="#010101" stroke-width="4" stroke-linecap="round" stroke-linejoin="round" opacity="1" fill="none"></path></g></svg>